<svg width="81" height="80" viewBox="0 0 81 80" fill="none" xmlns="http://www.w3.org/2000/svg">
<g clip-path="url(#clip0_6722_4324)">
<path d="M70.2386 74.4778C69.4181 75.5717 67.7794 75.5722 66.9586 74.4778C65.3327 72.3098 62.683 71.3937 60.143 71.9356L71.7256 48.3145L61.57 43.2368V23.5992H56.8844V9.54215H42.8273V4.70027H47.513V0.0146484H33.4559V4.70027H38.1416V9.54215H24.0845V23.5992H19.3989V43.2367L9.24328 48.3145L20.8261 71.9356C18.287 71.3939 15.637 72.309 14.0103 74.4778C13.1898 75.5717 11.5511 75.5722 10.7303 74.4778C8.03562 70.885 3.19141 70.8892 0.5 74.4778L4.24859 77.2892C5.06687 76.1982 6.16297 76.1972 6.98188 77.2892C9.67781 80.8837 15.0619 80.8851 17.7589 77.2892C18.5794 76.1953 20.2181 76.1948 21.0389 77.2892C23.7348 80.8837 29.1189 80.8851 31.8159 77.2892C32.6364 76.1953 34.2752 76.1948 35.0959 77.2892C36.3802 79.0014 38.3442 79.9834 40.4845 79.9834C42.6248 79.9834 44.5889 79.0012 45.8731 77.2892C46.6936 76.1953 48.3323 76.1948 49.1531 77.2892C51.8491 80.8837 57.2331 80.8851 59.9302 77.2892C60.7506 76.1953 62.3894 76.1948 63.2102 77.2892C65.9061 80.8837 71.2902 80.8851 73.9872 77.2892C74.8059 76.1975 75.9328 76.1972 76.7517 77.2892L80.5002 74.4778C77.8052 70.8845 72.93 70.8893 70.2386 74.4778ZM28.7703 14.2278H52.1986V23.5992H28.7703V14.2278ZM38.1417 73.6809C35.3161 70.9268 30.5627 71.1512 28.0675 74.4778C27.9175 74.6776 27.7369 74.844 27.5347 74.9742L15.4977 50.4262L38.1417 39.1042V73.6809ZM24.0847 40.8939V28.2848H56.8844V40.8939L40.4845 32.6939L24.0847 40.8939ZM53.4344 74.9742C53.2322 74.844 53.0516 74.6776 52.9016 74.4778C50.408 71.1531 45.6555 70.9245 42.8273 73.6809V39.1042L65.4714 50.4262L53.4344 74.9742Z" fill="#E6E6FE"/>
<path d="M33.4563 51.713H28.7707V56.3987H33.4563V51.713Z" fill="#E6E6FE"/>
<path d="M52.1985 51.713H47.5128V56.3987H52.1985V51.713Z" fill="#E6E6FE"/>
<path d="M76.3636 60L60 76.3636M60 60L76.3636 76.3636" stroke="#F50018" stroke-width="7" stroke-linecap="round" stroke-linejoin="round"/>
</g>
<defs>
<clipPath id="clip0_6722_4324">
<rect width="80" height="80" fill="white" transform="translate(0.5)"/>
</clipPath>
</defs>
</svg>
