<svg width="24" height="16" viewBox="0 0 24 16" fill="none" xmlns="http://www.w3.org/2000/svg">
<path d="M23.2258 0H12.3871L0.421875 8.28098V15.1638H23.2258L24 14.7097V13.2719L23.4961 12.7927V11.4333L24 11.0599V8.84789L23.5469 8.41378V7.02314L24 6.63586V4.42392L23.5469 4.02319V2.80444L24 2.21198V0.774188C24 0.346594 23.6534 0 23.2258 0Z" fill="#E5646E"/>
<path d="M12.0156 2.21191H24V4.4239H12.0156V2.21191Z" fill="#F2F2F6"/>
<path d="M12 6.63574L12.3871 8.84773H24V6.63574H12Z" fill="#F2F2F6"/>
<path d="M0.774188 12.3874V8.44531L0 8.84816V11.0601L0.328125 11.3398V12.793L0 13.2721V14.7099C0 15.1375 0.346641 15.4841 0.774188 15.4841H23.2258C23.6534 15.4841 24 15.1375 24 14.7099H3.0968C1.81406 14.7099 0.774188 13.6701 0.774188 12.3874Z" fill="#DB4655"/>
<path d="M12.3871 0H0.774188L0.28125 0.774188L0.774188 8.84789H12.3871V0Z" fill="#5055A0"/>
<path d="M0.774188 0C0.346641 0 0 0.346594 0 0.774188V8.84789H0.774188V0Z" fill="#3F3F8F"/>
<path d="M1.55303 1.72536C1.33905 1.72536 1.16406 1.55202 1.16406 1.33827C1.16406 1.12452 1.3353 0.951172 1.54928 0.951172H1.55308C1.76706 0.951172 1.94017 1.12452 1.94017 1.33827C1.94017 1.55202 1.76697 1.72536 1.55303 1.72536Z" fill="white"/>
<path d="M1.55303 4.82302C1.33905 4.82302 1.16406 4.64967 1.16406 4.43592C1.16406 4.22217 1.3353 4.04883 1.54928 4.04883H1.55308C1.76706 4.04883 1.94017 4.22217 1.94017 4.43592C1.94017 4.64967 1.76697 4.82302 1.55303 4.82302Z" fill="white"/>
<path d="M1.55303 7.9197C1.33905 7.9197 1.16406 7.74635 1.16406 7.5326C1.16406 7.31885 1.3353 7.14551 1.54928 7.14551H1.55308C1.76706 7.14551 1.94017 7.31885 1.94017 7.5326C1.94017 7.74635 1.76697 7.9197 1.55303 7.9197Z" fill="white"/>
<path d="M1.55303 3.27419C1.33905 3.27419 1.16406 3.10084 1.16406 2.88709C1.16406 2.67334 1.3353 2.5 1.54928 2.5H1.55308C1.76706 2.5 1.94017 2.67334 1.94017 2.88709C1.94013 3.10084 1.76697 3.27419 1.55303 3.27419Z" fill="#F2F2F6"/>
<path d="M1.55303 6.37087C1.33905 6.37087 1.16406 6.19752 1.16406 5.98377C1.16406 5.77002 1.3353 5.59668 1.54928 5.59668H1.55308C1.76706 5.59668 1.94017 5.77002 1.94017 5.98377C1.94017 6.19752 1.76697 6.37087 1.55303 6.37087Z" fill="#F2F2F6"/>
<path d="M10.8421 1.72536C10.6281 1.72536 10.4531 1.55202 10.4531 1.33827C10.4531 1.12452 10.6244 0.951172 10.8383 0.951172H10.8421C11.0561 0.951172 11.2292 1.12452 11.2292 1.33827C11.2292 1.55202 11.0561 1.72536 10.8421 1.72536Z" fill="white"/>
<path d="M10.8421 4.82302C10.6281 4.82302 10.4531 4.64967 10.4531 4.43592C10.4531 4.22217 10.6244 4.04883 10.8383 4.04883H10.8421C11.0561 4.04883 11.2292 4.22217 11.2292 4.43592C11.2292 4.64967 11.0561 4.82302 10.8421 4.82302Z" fill="white"/>
<path d="M10.8421 7.9197C10.6281 7.9197 10.4531 7.74635 10.4531 7.5326C10.4531 7.31885 10.6244 7.14551 10.8383 7.14551H10.8421C11.0561 7.14551 11.2292 7.31885 11.2292 7.5326C11.2292 7.74635 11.0561 7.9197 10.8421 7.9197Z" fill="white"/>
<path d="M10.8421 3.27419C10.6281 3.27419 10.4531 3.10084 10.4531 2.88709C10.4531 2.67334 10.6244 2.5 10.8383 2.5H10.8421C11.0561 2.5 11.2292 2.67334 11.2292 2.88709C11.2292 3.10084 11.0561 3.27419 10.8421 3.27419Z" fill="#F2F2F6"/>
<path d="M10.8421 6.37087C10.6281 6.37087 10.4531 6.19752 10.4531 5.98377C10.4531 5.77002 10.6244 5.59668 10.8383 5.59668H10.8421C11.0561 5.59668 11.2292 5.77002 11.2292 5.98377C11.2292 6.19752 11.0561 6.37087 10.8421 6.37087Z" fill="#F2F2F6"/>
<path d="M3.87334 1.72536C3.65936 1.72536 3.48438 1.55202 3.48438 1.33827C3.48438 1.12452 3.65561 0.951172 3.86959 0.951172H3.87339C4.08738 0.951172 4.26048 1.12452 4.26048 1.33827C4.26048 1.55202 4.08733 1.72536 3.87334 1.72536Z" fill="#F2F2F6"/>
<path d="M3.87334 4.82204C3.65936 4.82204 3.48438 4.6487 3.48438 4.43495C3.48438 4.2212 3.65561 4.04785 3.86959 4.04785H3.87339C4.08738 4.04785 4.26048 4.2212 4.26048 4.43495C4.26048 4.6487 4.08733 4.82204 3.87334 4.82204Z" fill="#F2F2F6"/>
<path d="M3.87334 7.91872C3.65936 7.91872 3.48438 7.74537 3.48438 7.53162C3.48438 7.31787 3.65561 7.14453 3.86959 7.14453H3.87339C4.08738 7.14453 4.26048 7.31787 4.26048 7.53162C4.26048 7.74537 4.08733 7.91872 3.87334 7.91872Z" fill="#F2F2F6"/>
<path d="M3.87334 3.27419C3.65936 3.27419 3.48438 3.10084 3.48438 2.88709C3.48438 2.67334 3.65561 2.5 3.86959 2.5H3.87339C4.08738 2.5 4.26048 2.67334 4.26048 2.88709C4.26044 3.10084 4.08733 3.27419 3.87334 3.27419Z" fill="white"/>
<path d="M3.87334 6.37087C3.65936 6.37087 3.48438 6.19752 3.48438 5.98377C3.48438 5.77002 3.65561 5.59668 3.86959 5.59668H3.87339C4.08738 5.59668 4.26048 5.77002 4.26048 5.98377C4.26048 6.19752 4.08733 6.37087 3.87334 6.37087Z" fill="white"/>
<path d="M2.71319 2.49977C2.4992 2.49977 2.32422 2.32643 2.32422 2.11268C2.32422 1.89893 2.49545 1.72559 2.70944 1.72559H2.71323C2.92722 1.72559 3.10033 1.89893 3.10033 2.11268C3.10028 2.32648 2.92717 2.49977 2.71319 2.49977Z" fill="white"/>
<path d="M2.71319 5.59645C2.4992 5.59645 2.32422 5.42311 2.32422 5.20936C2.32422 4.99561 2.49545 4.82227 2.70944 4.82227H2.71323C2.92722 4.82227 3.10033 4.99561 3.10033 5.20936C3.10033 5.42311 2.92717 5.59645 2.71319 5.59645Z" fill="white"/>
<path d="M2.71319 4.0486C2.4992 4.0486 2.32422 3.87526 2.32422 3.66151C2.32422 3.44776 2.49545 3.27441 2.70944 3.27441H2.71323C2.92722 3.27441 3.10033 3.44776 3.10033 3.66151C3.10033 3.87526 2.92717 4.0486 2.71319 4.0486Z" fill="#F2F2F6"/>
<path d="M2.71319 7.14528C2.4992 7.14528 2.32422 6.97194 2.32422 6.75819C2.32422 6.54444 2.49545 6.37109 2.70944 6.37109H2.71323C2.92722 6.37109 3.10033 6.54444 3.10033 6.75819C3.10033 6.97194 2.92717 7.14528 2.71319 7.14528Z" fill="#F2F2F6"/>
<path d="M6.19756 1.72536C5.98358 1.72536 5.80859 1.55202 5.80859 1.33827C5.80859 1.12452 5.97983 0.951172 6.19381 0.951172H6.19761C6.41159 0.951172 6.5847 1.12452 6.5847 1.33827C6.5847 1.55202 6.4115 1.72536 6.19756 1.72536Z" fill="white"/>
<path d="M6.19756 4.82302C5.98358 4.82302 5.80859 4.64967 5.80859 4.43592C5.80859 4.22217 5.97983 4.04883 6.19381 4.04883H6.19761C6.41159 4.04883 6.5847 4.22217 6.5847 4.43592C6.5847 4.64967 6.4115 4.82302 6.19756 4.82302Z" fill="white"/>
<path d="M6.19756 7.9197C5.98358 7.9197 5.80859 7.74635 5.80859 7.5326C5.80859 7.31885 5.97983 7.14551 6.19381 7.14551H6.19761C6.41159 7.14551 6.5847 7.31885 6.5847 7.5326C6.5847 7.74635 6.4115 7.9197 6.19756 7.9197Z" fill="white"/>
<path d="M6.19756 3.27419C5.98358 3.27419 5.80859 3.10084 5.80859 2.88709C5.80859 2.67334 5.97983 2.5 6.19381 2.5H6.19761C6.41159 2.5 6.5847 2.67334 6.5847 2.88709C6.58466 3.10084 6.4115 3.27419 6.19756 3.27419Z" fill="#F2F2F6"/>
<path d="M6.19756 6.37087C5.98358 6.37087 5.80859 6.19752 5.80859 5.98377C5.80859 5.77002 5.97983 5.59668 6.19381 5.59668H6.19761C6.41159 5.59668 6.5847 5.77002 6.5847 5.98377C6.5847 6.19752 6.4115 6.37087 6.19756 6.37087Z" fill="#F2F2F6"/>
<path d="M5.03741 2.49977C4.82342 2.49977 4.64844 2.32643 4.64844 2.11268C4.64844 1.89893 4.81967 1.72559 5.03366 1.72559H5.03745C5.25144 1.72559 5.42455 1.89893 5.42455 2.11268C5.42455 2.32648 5.25139 2.49977 5.03741 2.49977Z" fill="#F2F2F6"/>
<path d="M5.03741 5.59645C4.82342 5.59645 4.64844 5.42311 4.64844 5.20936C4.64844 4.99561 4.81967 4.82227 5.03366 4.82227H5.03745C5.25144 4.82227 5.42455 4.99561 5.42455 5.20936C5.42455 5.42311 5.25139 5.59645 5.03741 5.59645Z" fill="#F2F2F6"/>
<path d="M5.03741 4.0486C4.82342 4.0486 4.64844 3.87526 4.64844 3.66151C4.64844 3.44776 4.81967 3.27441 5.03366 3.27441H5.03745C5.25144 3.27441 5.42455 3.44776 5.42455 3.66151C5.42455 3.87526 5.25139 4.0486 5.03741 4.0486Z" fill="white"/>
<path d="M5.03741 7.14528C4.82342 7.14528 4.64844 6.97194 4.64844 6.75819C4.64844 6.54444 4.81967 6.37109 5.03366 6.37109H5.03745C5.25144 6.37109 5.42455 6.54444 5.42455 6.75819C5.42455 6.97194 5.25139 7.14528 5.03741 7.14528Z" fill="white"/>
<path d="M8.51397 1.72536C8.29998 1.72536 8.125 1.55202 8.125 1.33827C8.125 1.12452 8.29623 0.951172 8.51022 0.951172H8.51402C8.728 0.951172 8.90111 1.12452 8.90111 1.33827C8.90111 1.55202 8.72795 1.72536 8.51397 1.72536Z" fill="#F2F2F6"/>
<path d="M8.51397 4.82302C8.29998 4.82302 8.125 4.64967 8.125 4.43592C8.125 4.22217 8.29623 4.04883 8.51022 4.04883H8.51402C8.728 4.04883 8.90111 4.22217 8.90111 4.43592C8.90111 4.64967 8.72795 4.82302 8.51397 4.82302Z" fill="#F2F2F6"/>
<path d="M8.51397 7.9197C8.29998 7.9197 8.125 7.74635 8.125 7.5326C8.125 7.31885 8.29623 7.14551 8.51022 7.14551H8.51402C8.728 7.14551 8.90111 7.31885 8.90111 7.5326C8.90111 7.74635 8.72795 7.9197 8.51397 7.9197Z" fill="#F2F2F6"/>
<path d="M8.51788 3.27419C8.30389 3.27419 8.12891 3.10084 8.12891 2.88709C8.12891 2.67334 8.30014 2.5 8.51413 2.5H8.51792C8.73191 2.5 8.90502 2.67334 8.90502 2.88709C8.90497 3.10084 8.73186 3.27419 8.51788 3.27419Z" fill="white"/>
<path d="M8.51788 6.37087C8.30389 6.37087 8.12891 6.19752 8.12891 5.98377C8.12891 5.77002 8.30014 5.59668 8.51413 5.59668H8.51792C8.73191 5.59668 8.90502 5.77002 8.90502 5.98377C8.90502 6.19752 8.73186 6.37087 8.51788 6.37087Z" fill="white"/>
<path d="M7.35381 2.49977C7.13983 2.49977 6.96484 2.32643 6.96484 2.11268C6.96484 1.89893 7.13608 1.72559 7.35006 1.72559H7.35386C7.56784 1.72559 7.74095 1.89893 7.74095 2.11268C7.74091 2.32648 7.5678 2.49977 7.35381 2.49977Z" fill="white"/>
<path d="M7.35381 5.59645C7.13983 5.59645 6.96484 5.42311 6.96484 5.20936C6.96484 4.99561 7.13608 4.82227 7.35006 4.82227H7.35386C7.56784 4.82227 7.74095 4.99561 7.74095 5.20936C7.74095 5.42311 7.5678 5.59645 7.35381 5.59645Z" fill="white"/>
<path d="M7.35381 4.0486C7.13983 4.0486 6.96484 3.87526 6.96484 3.66151C6.96484 3.44776 7.13608 3.27441 7.35006 3.27441H7.35386C7.56784 3.27441 7.74095 3.44776 7.74095 3.66151C7.74095 3.87526 7.5678 4.0486 7.35381 4.0486Z" fill="#F2F2F6"/>
<path d="M7.35381 7.14528C7.13983 7.14528 6.96484 6.97194 6.96484 6.75819C6.96484 6.54444 7.13608 6.37109 7.35006 6.37109H7.35386C7.56784 6.37109 7.74095 6.54444 7.74095 6.75819C7.74095 6.97194 7.5678 7.14528 7.35381 7.14528Z" fill="#F2F2F6"/>
<path d="M9.68194 2.49977C9.46795 2.49977 9.29297 2.32643 9.29297 2.11268C9.29297 1.89893 9.4642 1.72559 9.67819 1.72559H9.68198C9.89597 1.72559 10.0691 1.89893 10.0691 2.11268C10.069 2.32648 9.89592 2.49977 9.68194 2.49977Z" fill="#F2F2F6"/>
<path d="M9.68194 5.59645C9.46795 5.59645 9.29297 5.42311 9.29297 5.20936C9.29297 4.99561 9.4642 4.82227 9.67819 4.82227H9.68198C9.89597 4.82227 10.0691 4.99561 10.0691 5.20936C10.0691 5.42311 9.89592 5.59645 9.68194 5.59645Z" fill="#F2F2F6"/>
<path d="M9.68194 4.0486C9.46795 4.0486 9.29297 3.87526 9.29297 3.66151C9.29297 3.44776 9.4642 3.27441 9.67819 3.27441H9.68198C9.89597 3.27441 10.0691 3.44776 10.0691 3.66151C10.0691 3.87526 9.89592 4.0486 9.68194 4.0486Z" fill="white"/>
<path d="M9.68194 7.14528C9.46795 7.14528 9.29297 6.97194 9.29297 6.75819C9.29297 6.54444 9.4642 6.37109 9.67819 6.37109H9.68198C9.89597 6.37109 10.0691 6.54444 10.0691 6.75819C10.0691 6.97194 9.89592 7.14528 9.68194 7.14528Z" fill="white"/>
<path d="M0.140625 12.6322L0.949687 13.2716H24V11.0596H0.774188L0.140625 12.6322Z" fill="#F2F2F6"/>
<path d="M0 11.0596V13.2716H0.949687C0.837141 12.9988 0.774234 12.7002 0.774234 12.3868V11.0596H0L0 11.0596Z" fill="#E1E1E6"/>
</svg>
